<svg width="100" height="100" viewBox="0 0 100 100" fill="none" xmlns="http://www.w3.org/2000/svg">
<path d="M32.5874 42.9722L20.3026 45.3784L30.3712 93.8268L42.6561 91.4204L32.5874 42.9722ZM29.603 48.2437L30.5424 52.7639L25.8865 53.676L24.9472 49.1558L29.603 48.2437ZM31.5808 57.7605L32.5203 62.2807L27.8643 63.1928L26.9249 58.6725L31.5808 57.7605ZM33.5586 67.2771L34.4981 71.7973L29.8421 72.7094L28.9027 68.1891L33.5586 67.2771ZM35.5365 76.7939L36.4759 81.3141L31.82 82.2261L30.8805 77.7059L35.5365 76.7939ZM37.5143 86.3105L38.4535 90.8307L33.7976 91.7427L32.8584 87.2225L37.5143 86.3105Z" fill="#FFAA00"/>
<path d="M66.969 43.2656L79.2539 45.6718L69.1852 94.1203L56.9004 91.7139L66.969 43.2656ZM69.9535 48.5372L69.014 53.0574L73.67 53.9694L74.6092 49.4492L69.9535 48.5372ZM67.9757 58.054L67.0362 62.5742L71.6922 63.4862L72.6316 58.966L67.9757 58.054ZM65.9978 67.5705L65.0584 72.0908L69.7143 73.0028L70.6538 68.4826L65.9978 67.5705ZM64.02 77.0873L63.0805 81.6076L67.7365 82.5196L68.6759 77.9994L64.02 77.0873ZM62.0422 86.6039L61.1029 91.1241L65.7589 92.0362L66.6981 87.516L62.0422 86.6039Z" fill="#FFAA00"/>
<path d="M20.3806 45.7689C43.3626 41.1387 58.1398 41.2084 79.2663 45.5959" stroke="#FFAA00" stroke-width="6.01"/>
<path d="M16.7507 97.3829C40.1454 89.2092 59.9723 89.1724 80.7521 98.1238" stroke="#FFAA00" stroke-width="3"/>
<path d="M59.207 63.4912L51.8594 67.7496L44.3901 72.0787C44.2978 72.1321 44.1913 72.1632 44.0811 72.1689C43.9709 72.1746 43.8609 72.1546 43.7623 72.1109C43.6637 72.0672 43.5798 72.0015 43.5192 71.9202C43.4586 71.8389 43.4233 71.745 43.4169 71.6479L42.8991 63.7836L42.3829 55.943C42.3764 55.8435 42.3997 55.7442 42.4504 55.6551C42.5012 55.5661 42.5777 55.4903 42.6723 55.4355C42.7668 55.3808 42.876 55.3489 42.9889 55.3431C43.1018 55.3373 43.2145 55.3578 43.3156 55.4025L51.2786 58.9271L59.1355 62.4048C59.2473 62.4543 59.3424 62.5289 59.4111 62.621C59.4799 62.7132 59.5199 62.8196 59.5271 62.9297C59.5344 63.0398 59.5086 63.1497 59.4524 63.2482C59.3962 63.3468 59.3116 63.4306 59.207 63.4912Z" fill="#FFAA00"/>
<path d="M18.9257 39.9705C43.0696 34.9639 58.5939 35.0392 80.7885 39.7834" stroke="#FFAA00" stroke-width="3"/>
<path d="M82.6542 33.2783C82.7766 33.3524 83.6235 31.717 83.7963 31.1109C84.6106 28.2543 83.3282 25.1778 80.7355 23.7679C79.6833 23.1957 79.0543 23.0246 77.8452 22.9815C76.6085 22.9374 75.6201 23.1818 74.5043 23.8075C73.5321 24.3526 73.1427 24.3605 72.6718 23.8446C72.2517 23.3842 72.245 22.8326 72.6543 22.3896C72.9852 22.0315 73.9288 21.5069 74.7865 21.2042C75.1383 21.0801 75.4615 20.9285 75.5049 20.8673C75.6384 20.6793 75.642 19.7356 75.5117 18.9212C75.1977 16.9477 74.0052 15.2466 72.2848 14.3182C71.6616 13.9819 71.3788 13.9549 71.3661 14.2306C71.3532 14.5087 70.4099 16.0338 69.8655 16.6563C69.41 17.1772 68.5392 17.9426 68.1433 18.1701C68.0815 18.2057 68.221 18.5341 68.4836 18.9712C69.3756 20.4557 69.6277 22.2602 69.166 23.8557C68.5446 26.0036 66.6228 27.7713 64.4702 28.175C63.292 28.396 61.5169 28.172 60.6961 27.699C59.9793 27.2858 59.9843 26.0804 60.7029 25.7741C61.1542 25.5821 61.2735 25.5855 61.9961 25.8111C62.8464 26.0765 63.3476 26.1133 64.0432 25.9615C65.2524 25.6976 66.1567 25.0148 66.7299 23.9328C67.0411 23.3455 67.0819 23.181 67.117 22.3745C67.1477 21.683 67.1111 21.341 66.9603 20.9072C66.6782 20.0923 65.9462 19.2382 65.1582 18.8045C64.5717 18.4817 64.4023 18.4386 63.3332 18.3399C62.2651 18.2414 62.1316 18.2075 61.9089 17.978C61.4731 17.529 61.5272 16.7291 62.0208 16.3225C62.5148 15.9155 64.3362 16.0198 65.5926 16.5271L66.156 16.7545L66.7994 16.3389C68.0297 15.5444 68.8478 14.5303 69.3497 13.1777C69.7514 12.0953 69.8624 11.1273 69.7045 10.087C69.219 6.89085 66.5087 4.56325 63.3278 4.61047C62.8254 4.61788 62.2921 4.66478 62.1426 4.71457L61.8706 4.80509L62.1365 5.59525C62.8071 7.58811 62.7743 9.54177 62.0369 11.5107C61.7326 12.3234 61.4254 12.576 60.7772 12.5462C60.3376 12.526 60.2417 12.4812 59.9984 12.1825C59.6581 11.7648 59.6584 11.4061 59.9996 10.5996C60.2081 10.1065 60.2579 9.80299 60.3092 8.70997C60.3636 7.55214 60.3447 7.32496 60.1391 6.66083C59.8217 5.63605 59.3998 4.89554 58.7014 4.1371C58.0026 3.3784 57.1575 2.78968 56.2512 2.43032C55.3182 2.06042 53.4125 1.96785 52.3772 2.24221C49.8776 2.90452 47.9507 5.14077 47.6805 7.69296L47.589 8.55763L47.9201 8.74744C50.0616 9.97495 51.6982 12.3315 52.0908 14.7529C52.1508 15.1228 52.2234 15.4513 52.2521 15.4828C52.2808 15.5143 52.654 15.6175 53.0814 15.7121C55.1638 16.1729 56.8842 17.7962 57.5136 19.8942C57.6991 20.5125 57.7291 20.8241 57.6915 21.7402C57.6529 22.6931 57.6037 22.9487 57.3327 23.6272C57.0148 24.4229 56.3039 25.4962 55.8227 25.9072C55.4741 26.2048 54.7384 26.262 54.4003 26.0177C54.0454 25.7612 53.848 25.2692 53.9413 24.8734C53.9841 24.6917 54.1879 24.3593 54.394 24.1346C55.1989 23.2574 55.5756 22.1996 55.4594 21.1436C55.3712 20.3429 55.1263 19.7804 54.5805 19.1256C53.3602 17.6615 51.1381 17.3655 49.6424 18.4676C48.9441 18.9821 48.5656 19.1022 48.1268 18.9485C47.6378 18.7773 47.364 18.383 47.3871 17.8831C47.3971 17.6665 47.4546 17.4066 47.5148 17.3055C47.6705 17.0445 48.7153 16.3355 49.3808 16.0393C49.691 15.9012 49.9576 15.7783 49.9731 15.7661C50.0792 15.6828 49.7612 14.4917 49.4166 13.6805C49.0933 12.9197 48.8661 12.5593 48.3712 12.0225C47.3303 10.8934 46.4883 10.3886 44.9879 9.99406C43.2886 9.54729 41.1347 10.056 39.5781 11.2717C38.7148 11.946 37.6139 13.628 37.4801 14.4773C37.4349 14.7637 37.4438 14.7697 38.1304 14.9228C39.5881 15.2479 40.7048 15.9259 41.6533 17.0616C42.3332 17.8758 42.7286 18.692 42.7038 19.2302C42.6898 19.5336 42.6111 19.6827 42.3296 19.9393C41.6792 20.532 40.8908 20.2853 40.4705 19.3574C39.9948 18.3072 39.17 17.5849 38.0291 17.2192C36.308 16.6677 34.417 17.4759 33.4912 19.1589C33.2217 19.6487 33.1831 19.8201 33.1421 20.7113C33.1014 21.5929 33.1255 21.7845 33.3426 22.3092C33.4883 22.6612 33.8455 23.1962 34.2147 23.6153C34.8839 24.3749 35.0319 24.7318 34.8785 25.2163C34.6977 25.7876 34.0879 26.0686 33.4593 25.8705C32.9618 25.7137 31.8543 24.4395 31.4372 23.544C30.9691 22.5391 30.8086 21.6973 30.8677 20.5564C30.9876 18.2367 32.3534 16.2607 34.4728 15.3403L35.0312 15.0978L35.1904 14.3916C35.601 12.5709 36.5816 10.9077 37.9214 9.75931C38.1483 9.56482 38.3344 9.36053 38.3349 9.30534C38.3362 9.16635 37.6678 8.64147 36.7396 8.05275C31.5595 4.7676 24.6253 6.66697 21.7761 12.1514C21.2001 13.2603 20.8174 14.4938 20.6995 15.6215L20.6278 16.3972L21.7538 16.418C22.9938 16.4409 23.9131 16.784 24.882 17.1511C26.1779 17.6421 27.1937 18.3082 28.0872 19.2528C28.7636 19.9678 28.8036 20.0363 28.7847 20.4463C28.768 20.8074 28.7041 20.9365 28.4081 21.2062C28.1202 21.4685 27.9735 21.5275 27.6464 21.5125C27.3019 21.4966 27.1574 21.4132 26.6825 20.9557C25.548 19.8628 24.794 19.4164 23.4824 19.0609C22.145 18.6984 20.7579 18.8296 19.2864 19.4577C18.2701 19.8915 17.0496 21.0354 16.4646 22.1023C15.4449 23.962 15.3497 26.1557 16.2028 28.0996C16.9421 29.7841 17.5707 30.301 18.6569 31.1485C26.1016 36.957 69.587 25.3626 82.6528 33.2784L82.6542 33.2783Z" fill="#FFAA00"/>
</svg>
